<svg xmlns="http://www.w3.org/2000/svg" version="1.1" xmlns:xlink="http://www.w3.org/1999/xlink" xmlns:svgjs="http://svgjs.dev/svgjs" viewBox="0 0 2400 800" opacity="0.24"><defs><linearGradient x1="50%" y1="0%" x2="50%" y2="100%" id="sssurf-grad"><stop stop-color="hsl(230, 55%, 50%)" stop-opacity="1" offset="0%"></stop><stop stop-color="hsl(230, 55%, 70%)" stop-opacity="1" offset="100%"></stop></linearGradient></defs><g fill="url(#sssurf-grad)" transform="matrix(1,0,0,1,0,-153.48275756835938)"><path d="M 0 321.85268131215054 Q 900 512.8045352031562 1200 317.8855663367963 Q 2100 609.0418413327784 2400 306.965530802279 L 2400 800 L 0 800 L 0 328.4208748724204 Z" transform="matrix(1,0,0,1,0,50)" opacity="0.05"></path><path d="M 0 321.85268131215054 Q 900 512.8045352031562 1200 317.8855663367963 Q 2100 609.0418413327784 2400 306.965530802279 L 2400 800 L 0 800 L 0 328.4208748724204 Z" transform="matrix(1,0,0,1,0,100)" opacity="0.21"></path><path d="M 0 321.85268131215054 Q 900 512.8045352031562 1200 317.8855663367963 Q 2100 609.0418413327784 2400 306.965530802279 L 2400 800 L 0 800 L 0 328.4208748724204 Z" transform="matrix(1,0,0,1,0,150)" opacity="0.37"></path><path d="M 0 321.85268131215054 Q 900 512.8045352031562 1200 317.8855663367963 Q 2100 609.0418413327784 2400 306.965530802279 L 2400 800 L 0 800 L 0 328.4208748724204 Z" transform="matrix(1,0,0,1,0,200)" opacity="0.53"></path><path d="M 0 321.85268131215054 Q 900 512.8045352031562 1200 317.8855663367963 Q 2100 609.0418413327784 2400 306.965530802279 L 2400 800 L 0 800 L 0 328.4208748724204 Z" transform="matrix(1,0,0,1,0,250)" opacity="0.68"></path><path d="M 0 321.85268131215054 Q 900 512.8045352031562 1200 317.8855663367963 Q 2100 609.0418413327784 2400 306.965530802279 L 2400 800 L 0 800 L 0 328.4208748724204 Z" transform="matrix(1,0,0,1,0,300)" opacity="0.84"></path><path d="M 0 321.85268131215054 Q 900 512.8045352031562 1200 317.8855663367963 Q 2100 609.0418413327784 2400 306.965530802279 L 2400 800 L 0 800 L 0 328.4208748724204 Z" transform="matrix(1,0,0,1,0,350)" opacity="1.00"></path></g></svg>