<svg xmlns="http://www.w3.org/2000/svg" version="1.1" xmlns:xlink="http://www.w3.org/1999/xlink" xmlns:svgjs="http://svgjs.dev/svgjs" viewBox="0 0 2400 800" opacity="0.42"><defs><linearGradient x1="50%" y1="0%" x2="50%" y2="100%" id="sssurf-grad"><stop stop-color="hsla(227, 38%, 36%, 1.00)" stop-opacity="1" offset="0%"></stop><stop stop-color="hsla(238, 77%, 5%, 1.00)" stop-opacity="1" offset="100%"></stop></linearGradient></defs><g fill="url(#sssurf-grad)" transform="matrix(1,0,0,1,0,-65.28890991210938)"><path d="M 0 257.57784186739434 Q 600 496.0415134208562 800 327.3431038011354 Q 1400 517.1026024715278 1600 267.8977534791851 Q 2200 515.347644659902 2400 404.75370230043666 L 2400 800 L 0 800 L 0 301.94784539187697 Z" transform="matrix(1,0,0,1,0,39)" opacity="0.05"></path><path d="M 0 257.57784186739434 Q 600 496.0415134208562 800 327.3431038011354 Q 1400 517.1026024715278 1600 267.8977534791851 Q 2200 515.347644659902 2400 404.75370230043666 L 2400 800 L 0 800 L 0 301.94784539187697 Z" transform="matrix(1,0,0,1,0,78)" opacity="0.24"></path><path d="M 0 257.57784186739434 Q 600 496.0415134208562 800 327.3431038011354 Q 1400 517.1026024715278 1600 267.8977534791851 Q 2200 515.347644659902 2400 404.75370230043666 L 2400 800 L 0 800 L 0 301.94784539187697 Z" transform="matrix(1,0,0,1,0,117)" opacity="0.43"></path><path d="M 0 257.57784186739434 Q 600 496.0415134208562 800 327.3431038011354 Q 1400 517.1026024715278 1600 267.8977534791851 Q 2200 515.347644659902 2400 404.75370230043666 L 2400 800 L 0 800 L 0 301.94784539187697 Z" transform="matrix(1,0,0,1,0,156)" opacity="0.62"></path><path d="M 0 257.57784186739434 Q 600 496.0415134208562 800 327.3431038011354 Q 1400 517.1026024715278 1600 267.8977534791851 Q 2200 515.347644659902 2400 404.75370230043666 L 2400 800 L 0 800 L 0 301.94784539187697 Z" transform="matrix(1,0,0,1,0,195)" opacity="0.81"></path><path d="M 0 257.57784186739434 Q 600 496.0415134208562 800 327.3431038011354 Q 1400 517.1026024715278 1600 267.8977534791851 Q 2200 515.347644659902 2400 404.75370230043666 L 2400 800 L 0 800 L 0 301.94784539187697 Z" transform="matrix(1,0,0,1,0,234)" opacity="1.00"></path></g></svg>